<svg id="svg" version="1.1" xmlns="http://www.w3.org/2000/svg" xmlns:xlink="http://www.w3.org/1999/xlink" width="400" height="400" viewBox="0, 0, 400,400"><g id="svgg"><path id="path0" d="M97.200 53.603 C 54.190 53.714,18.946 53.849,18.881 53.903 C 18.669 54.076,18.913 62.187,19.142 62.594 C 19.264 62.811,19.315 63.558,19.255 64.254 C 19.195 64.950,19.341 65.640,19.579 65.787 C 19.818 65.935,19.909 66.223,19.783 66.428 C 19.656 66.632,19.763 66.800,20.020 66.800 C 20.312 66.800,20.397 67.157,20.247 67.754 C 20.092 68.373,20.230 68.893,20.638 69.232 C 21.058 69.580,21.195 70.126,21.047 70.865 C 20.899 71.604,21.019 72.083,21.406 72.300 C 21.726 72.478,22.049 73.188,22.125 73.877 C 22.200 74.566,22.563 75.589,22.931 76.151 C 23.299 76.712,23.600 77.448,23.600 77.786 C 23.600 78.124,23.780 78.400,24.000 78.400 C 24.220 78.400,24.400 78.760,24.400 79.200 C 24.400 79.640,24.580 80.000,24.800 80.000 C 25.020 80.000,25.200 80.360,25.200 80.800 C 25.200 81.240,25.380 81.600,25.600 81.600 C 25.820 81.600,26.000 81.846,26.000 82.146 C 26.000 82.446,26.373 83.166,26.829 83.746 C 27.285 84.326,27.533 84.800,27.380 84.800 C 27.227 84.800,27.326 85.070,27.600 85.400 C 27.874 85.730,27.961 86.000,27.794 86.000 C 27.627 86.000,27.963 86.472,28.539 87.048 C 29.116 87.625,29.495 88.246,29.383 88.428 C 29.270 88.611,29.543 88.955,29.989 89.194 C 30.435 89.433,30.800 89.873,30.800 90.171 C 30.800 90.470,31.072 90.819,31.404 90.946 C 31.736 91.073,31.961 91.408,31.904 91.689 C 31.845 91.980,32.101 92.149,32.500 92.082 C 32.947 92.007,33.205 92.224,33.213 92.682 C 33.226 93.445,34.924 95.600,35.511 95.600 C 36.028 95.600,37.641 97.415,37.404 97.730 C 37.292 97.878,37.307 97.923,37.438 97.829 C 37.568 97.735,38.217 98.275,38.879 99.029 C 39.541 99.783,40.324 100.400,40.619 100.400 C 40.913 100.400,41.390 100.734,41.677 101.143 C 41.965 101.551,42.608 102.014,43.106 102.171 C 43.604 102.329,43.908 102.625,43.782 102.830 C 43.570 103.171,45.227 104.074,46.227 104.162 C 46.462 104.183,46.970 104.515,47.356 104.900 C 47.741 105.285,48.304 105.600,48.605 105.600 C 48.906 105.600,49.283 105.811,49.442 106.068 C 49.636 106.383,49.513 106.452,49.066 106.281 C 47.434 105.654,48.656 106.457,51.394 107.810 C 53.488 108.845,54.684 109.215,55.370 109.043 C 56.108 108.858,56.509 109.020,56.981 109.694 C 57.327 110.188,57.832 110.611,58.105 110.635 C 58.377 110.659,59.106 110.706,59.724 110.739 C 60.350 110.773,60.739 110.975,60.603 111.195 C 60.465 111.418,60.617 111.492,60.948 111.365 C 61.272 111.240,61.957 111.366,62.469 111.643 C 62.981 111.921,63.760 112.171,64.200 112.200 C 64.640 112.229,65.596 112.286,66.324 112.326 C 67.052 112.367,67.556 112.547,67.445 112.727 C 67.334 112.907,68.136 113.060,69.227 113.066 C 70.319 113.073,71.344 113.224,71.506 113.403 C 71.668 113.582,71.547 113.582,71.238 113.402 C 70.852 113.178,70.769 113.227,70.974 113.558 C 71.205 113.931,71.400 113.932,71.847 113.561 C 72.289 113.194,72.663 113.191,73.446 113.548 C 74.211 113.897,91.742 114.008,143.233 113.992 C 181.054 113.981,212.314 114.124,212.699 114.310 C 213.085 114.497,214.480 114.692,215.800 114.744 C 217.120 114.796,218.866 115.163,219.680 115.559 C 220.707 116.059,221.288 116.152,221.577 115.863 C 221.867 115.573,222.345 115.705,223.141 116.293 C 224.215 117.087,224.331 117.098,224.970 116.470 C 225.346 116.102,225.596 115.980,225.527 116.200 C 225.457 116.420,225.580 116.658,225.800 116.729 C 226.020 116.799,226.485 117.115,226.832 117.429 C 227.180 117.744,227.570 117.897,227.698 117.768 C 227.827 117.640,228.352 117.763,228.866 118.041 C 229.380 118.319,230.267 118.571,230.838 118.600 C 231.409 118.630,232.309 119.058,232.838 119.553 C 233.436 120.112,234.139 120.388,234.697 120.282 C 235.191 120.188,235.801 120.361,236.054 120.665 C 236.308 120.971,236.845 121.113,237.256 120.982 C 237.765 120.821,238.000 120.944,238.000 121.373 C 238.000 121.718,238.268 122.000,238.595 122.000 C 238.923 122.000,239.508 122.271,239.895 122.603 C 240.283 122.935,240.740 123.196,240.910 123.184 C 241.335 123.153,245.277 125.283,245.920 125.891 C 246.206 126.161,246.710 126.534,247.040 126.718 C 247.521 126.988,247.636 127.961,247.619 131.627 C 247.607 134.142,247.603 137.235,247.611 138.500 C 247.618 139.765,247.484 140.800,247.312 140.800 C 247.140 140.800,247.006 141.655,247.013 142.700 C 247.028 145.037,246.851 145.662,246.258 145.368 C 246.006 145.243,246.149 145.424,246.576 145.770 C 247.246 146.313,247.190 146.536,246.400 146.481 C 246.290 146.473,246.217 147.037,246.239 147.733 C 246.261 148.457,246.010 149.196,245.654 149.457 C 245.129 149.841,245.115 150.015,245.564 150.557 C 245.989 151.069,245.998 151.321,245.604 151.795 C 245.333 152.122,245.214 152.660,245.341 152.990 C 245.475 153.339,245.368 153.551,245.086 153.495 C 244.819 153.443,244.582 153.760,244.559 154.200 C 244.442 156.509,244.367 156.827,244.000 156.600 C 243.767 156.456,243.600 156.863,243.600 157.576 C 243.600 158.285,243.390 158.803,243.100 158.806 C 242.701 158.811,242.700 158.876,243.099 159.129 C 243.474 159.367,243.349 159.785,242.599 160.801 C 242.050 161.546,241.600 162.453,241.600 162.816 C 241.600 163.517,240.273 164.940,239.934 164.601 C 239.824 164.490,239.733 164.662,239.733 164.982 C 239.733 165.303,239.898 165.463,240.099 165.339 C 240.300 165.215,240.048 165.748,239.540 166.523 C 239.032 167.299,238.477 167.848,238.308 167.743 C 238.139 167.638,238.000 167.841,238.000 168.193 C 238.000 169.064,236.563 170.548,236.035 170.222 C 235.779 170.063,235.699 170.194,235.836 170.548 C 236.129 171.314,234.514 172.929,233.748 172.636 C 233.424 172.511,233.266 172.583,233.398 172.796 C 233.529 173.009,233.429 173.572,233.176 174.046 C 232.807 174.734,232.643 174.796,232.363 174.354 C 232.030 173.828,231.967 173.881,231.850 174.786 C 231.802 175.155,228.228 177.600,227.737 177.600 C 227.608 177.600,227.746 177.285,228.044 176.900 C 228.495 176.318,228.438 176.327,227.703 176.953 C 227.217 177.368,226.933 177.908,227.074 178.153 C 227.214 178.399,227.181 178.467,227.001 178.303 C 226.821 178.140,226.463 178.182,226.205 178.396 C 225.948 178.609,225.364 178.841,224.908 178.911 C 224.451 178.980,223.819 179.252,223.502 179.515 C 223.186 179.778,222.808 179.875,222.663 179.730 C 222.518 179.585,222.400 179.677,222.400 179.933 C 222.400 180.190,222.209 180.400,221.976 180.400 C 221.743 180.400,221.667 180.175,221.806 179.900 C 221.945 179.625,221.803 179.712,221.491 180.093 C 221.178 180.474,220.532 180.846,220.055 180.919 C 219.579 180.991,218.976 181.264,218.715 181.525 C 218.454 181.786,217.862 182.000,217.400 182.000 C 216.938 182.000,216.344 182.216,216.080 182.480 C 215.707 182.853,215.600 182.851,215.600 182.471 C 215.600 182.118,215.344 182.149,214.681 182.583 C 214.176 182.915,213.366 183.109,212.881 183.016 C 212.397 182.922,212.000 183.011,212.000 183.213 C 212.000 183.436,211.618 183.435,211.031 183.212 C 210.322 182.942,209.934 182.997,209.586 183.417 C 209.324 183.733,208.953 183.895,208.763 183.777 C 208.572 183.659,208.093 183.736,207.698 183.948 C 206.884 184.383,205.436 183.789,205.815 183.175 C 205.943 182.969,205.767 182.800,205.424 182.800 C 205.081 182.800,204.800 182.613,204.800 182.384 C 204.800 182.155,204.399 181.426,203.910 180.763 C 203.187 179.786,203.123 179.495,203.568 179.220 C 204.003 178.951,203.896 178.660,203.055 177.819 C 202.093 176.857,200.854 176.717,201.421 177.634 C 201.550 177.843,201.802 177.922,201.982 177.811 C 202.400 177.553,203.400 178.733,203.055 179.078 C 202.543 179.590,200.776 177.511,201.245 176.946 C 201.565 176.560,201.518 176.261,201.068 175.811 C 200.315 175.058,199.735 174.998,200.348 175.737 C 200.891 176.391,200.494 176.902,199.857 176.369 C 199.606 176.158,198.635 175.448,197.701 174.791 C 196.766 174.134,196.046 173.394,196.101 173.148 C 196.155 172.902,195.930 172.619,195.600 172.520 C 195.067 172.359,195.067 172.386,195.600 172.763 C 196.126 173.136,196.121 173.189,195.558 173.194 C 195.206 173.197,194.396 172.712,193.758 172.115 C 193.121 171.519,192.240 170.974,191.800 170.904 C 191.360 170.834,190.940 170.602,190.867 170.388 C 190.793 170.175,190.468 170.000,190.143 170.000 C 189.818 170.000,189.645 169.850,189.759 169.667 C 189.872 169.483,189.711 169.333,189.400 169.333 C 189.089 169.333,188.909 169.453,188.999 169.599 C 189.090 169.745,188.227 169.542,187.082 169.147 C 185.911 168.744,185.054 168.218,185.123 167.947 C 185.212 167.594,185.079 167.603,184.623 167.981 C 184.280 168.265,184.000 168.331,184.000 168.127 C 184.000 167.923,183.303 167.715,182.451 167.665 C 181.598 167.615,180.473 167.477,179.951 167.360 C 179.428 167.242,177.336 167.113,175.302 167.073 L 171.604 167.000 171.602 156.524 C 171.601 150.762,171.760 145.948,171.955 145.828 C 172.150 145.707,172.261 144.481,172.201 143.104 C 172.128 141.416,172.287 140.291,172.688 139.651 C 173.015 139.129,173.084 138.824,172.841 138.974 C 172.331 139.290,172.229 137.964,172.718 137.380 C 172.893 137.171,173.265 136.280,173.545 135.400 C 174.319 132.962,174.876 132.002,175.360 132.272 C 175.602 132.407,175.575 132.275,175.300 131.979 C 174.580 131.203,174.683 130.800,175.600 130.800 C 176.040 130.800,176.400 130.609,176.400 130.376 C 176.400 130.143,176.175 130.081,175.900 130.238 C 175.625 130.395,175.930 129.955,176.577 129.260 C 177.224 128.565,177.799 127.691,177.853 127.317 C 177.908 126.944,178.368 126.300,178.876 125.885 C 179.384 125.470,179.530 125.262,179.200 125.422 C 178.870 125.582,179.584 124.697,180.786 123.456 C 183.006 121.166,183.460 120.802,182.980 121.700 C 182.833 121.975,183.175 121.660,183.742 121.000 C 186.080 118.275,188.188 118.409,141.304 118.299 C 99.095 118.200,98.893 118.204,98.999 119.000 C 99.189 120.427,99.622 121.078,100.721 121.590 C 101.315 121.867,102.070 122.225,102.400 122.386 C 102.730 122.547,103.187 123.047,103.416 123.497 C 103.644 123.947,104.048 124.575,104.312 124.894 C 104.577 125.213,104.660 125.621,104.497 125.801 C 104.333 125.981,104.405 126.011,104.656 125.868 C 104.925 125.714,105.381 126.174,105.769 126.991 C 106.130 127.752,106.698 128.527,107.032 128.714 C 107.366 128.901,107.668 129.439,107.703 129.910 C 107.739 130.380,107.845 130.688,107.940 130.593 C 108.222 130.311,109.655 133.235,109.481 133.737 C 109.392 133.992,109.653 134.629,110.060 135.154 C 110.889 136.223,111.042 136.997,110.338 136.562 C 110.024 136.368,109.986 136.454,110.219 136.831 C 110.408 137.136,110.588 137.740,110.620 138.173 C 110.652 138.605,110.840 139.013,111.039 139.080 C 111.252 139.151,111.355 161.764,111.291 194.248 C 111.214 232.795,111.309 249.450,111.608 249.809 C 111.842 250.092,111.921 250.774,111.783 251.324 C 111.645 251.875,111.734 252.702,111.980 253.163 C 112.301 253.763,112.304 254.000,111.990 254.000 C 111.750 254.000,111.679 254.204,111.833 254.453 C 111.987 254.703,112.169 255.558,112.237 256.353 C 112.364 257.849,112.677 260.049,112.812 260.400 C 112.854 260.510,112.856 261.006,112.815 261.501 C 112.773 262.022,113.022 262.510,113.405 262.657 C 113.934 262.860,113.960 262.979,113.534 263.250 C 113.092 263.530,113.093 263.589,113.543 263.594 C 113.923 263.598,114.011 263.902,113.836 264.600 C 113.684 265.203,113.756 265.600,114.016 265.600 C 114.253 265.600,114.336 265.780,114.200 266.000 C 114.064 266.220,114.143 266.400,114.376 266.400 C 114.609 266.400,114.800 266.591,114.800 266.824 C 114.800 267.057,114.607 267.128,114.370 266.982 C 114.134 266.836,114.178 267.095,114.467 267.558 C 114.756 268.021,115.129 268.400,115.296 268.400 C 115.463 268.400,115.604 268.805,115.609 269.300 C 115.614 269.795,115.970 270.650,116.400 271.200 C 117.258 272.297,117.498 273.832,116.738 273.362 C 116.459 273.189,116.385 273.252,116.551 273.521 C 116.702 273.765,117.119 273.852,117.478 273.715 C 117.893 273.556,118.033 273.623,117.862 273.900 C 117.714 274.139,117.819 274.579,118.096 274.877 C 118.373 275.175,118.659 275.683,118.732 276.006 C 118.805 276.328,118.985 276.684,119.132 276.796 C 119.389 276.991,119.585 277.586,119.770 278.732 C 119.818 279.025,120.033 279.385,120.249 279.532 C 120.957 280.015,122.800 282.663,122.800 283.198 C 122.800 283.485,123.700 284.583,124.800 285.637 C 125.900 286.692,126.806 287.790,126.813 288.077 C 126.828 288.709,128.611 290.800,129.135 290.800 C 129.340 290.800,129.795 291.237,130.145 291.772 C 130.495 292.307,131.326 293.065,131.991 293.458 C 132.656 293.851,133.200 294.382,133.200 294.637 C 133.200 295.179,134.306 296.175,134.954 296.217 C 135.763 296.269,136.799 296.878,136.607 297.188 C 136.504 297.356,136.817 297.832,137.303 298.247 C 137.953 298.801,138.050 298.823,137.670 298.331 C 137.220 297.748,137.260 297.691,137.983 297.880 C 138.439 297.999,138.927 298.283,139.068 298.510 C 139.231 298.773,139.119 298.800,138.762 298.585 C 138.284 298.297,138.282 298.348,138.745 298.919 C 139.045 299.289,139.449 299.493,139.643 299.373 C 139.837 299.254,140.598 299.616,141.335 300.178 C 142.072 300.740,142.901 301.200,143.176 301.200 C 143.451 301.200,144.154 301.532,144.738 301.937 C 145.322 302.343,146.385 302.927,147.100 303.235 C 147.815 303.543,148.400 303.942,148.400 304.121 C 148.400 304.301,148.591 304.329,148.825 304.184 C 149.059 304.040,149.630 304.254,150.094 304.661 C 150.558 305.067,150.806 305.175,150.645 304.900 C 150.463 304.589,150.588 304.400,150.976 304.400 C 151.319 304.400,151.600 304.580,151.600 304.800 C 151.600 305.020,152.039 305.200,152.576 305.200 C 153.113 305.200,153.651 305.360,153.772 305.555 C 153.992 305.911,156.375 306.486,156.858 306.299 C 157.000 306.245,157.526 306.560,158.027 307.000 C 158.528 307.440,158.787 307.544,158.603 307.232 C 158.350 306.802,158.439 306.729,158.972 306.934 C 159.358 307.082,160.153 307.317,160.737 307.457 C 161.322 307.596,162.060 307.910,162.377 308.155 C 162.816 308.494,162.882 308.481,162.653 308.100 C 162.452 307.765,162.624 307.600,163.176 307.600 C 163.629 307.600,164.000 307.741,164.000 307.914 C 164.000 308.087,164.347 308.229,164.771 308.229 C 165.194 308.229,165.460 308.098,165.362 307.938 C 165.263 307.778,165.816 307.727,166.591 307.824 C 167.366 307.921,168.609 308.075,169.353 308.167 C 171.730 308.461,171.600 311.432,171.600 256.943 C 171.600 200.126,171.300 205.393,174.408 207.606 C 175.579 208.439,176.081 209.129,175.100 208.555 C 174.825 208.394,174.943 208.653,175.362 209.131 C 175.781 209.609,176.394 210.000,176.724 210.000 C 177.053 210.000,177.936 210.716,178.686 211.592 C 179.435 212.467,180.173 213.142,180.324 213.092 C 180.717 212.961,182.051 214.366,183.084 216.001 C 183.570 216.771,184.110 217.367,184.284 217.326 C 184.458 217.286,184.552 217.488,184.494 217.776 C 184.436 218.064,184.855 218.606,185.425 218.980 C 186.023 219.372,186.372 219.897,186.248 220.219 C 186.130 220.527,186.341 220.958,186.717 221.177 C 187.092 221.396,187.245 221.581,187.056 221.588 C 186.866 221.595,187.130 221.939,187.643 222.354 C 188.447 223.005,188.500 223.198,188.030 223.763 C 187.567 224.322,187.574 224.385,188.079 224.191 C 188.869 223.888,189.842 225.003,189.158 225.426 C 188.832 225.627,188.781 225.554,189.000 225.200 C 189.205 224.868,189.167 224.773,188.894 224.942 C 188.599 225.124,188.653 225.583,189.064 226.408 C 189.404 227.091,189.851 227.492,190.099 227.339 C 190.378 227.166,190.444 227.308,190.282 227.730 C 190.129 228.128,190.214 228.353,190.496 228.295 C 190.753 228.243,190.972 228.410,190.982 228.667 C 190.992 228.923,191.135 229.268,191.300 229.433 C 191.465 229.598,191.600 230.076,191.600 230.495 C 191.600 230.914,191.883 231.540,192.229 231.886 C 192.617 232.274,192.769 232.868,192.627 233.436 C 192.485 234.001,192.606 234.482,192.940 234.679 C 193.404 234.953,194.700 238.188,194.957 239.718 C 195.002 239.983,195.215 240.560,195.431 241.000 C 195.647 241.440,195.818 242.340,195.812 243.000 C 195.805 243.660,196.035 244.448,196.323 244.752 C 196.611 245.055,196.756 245.537,196.647 245.822 C 196.537 246.108,196.711 246.560,197.032 246.827 C 197.430 247.157,197.557 247.804,197.431 248.850 C 197.321 249.769,197.444 250.592,197.739 250.894 C 198.010 251.172,198.206 251.980,198.174 252.688 C 198.141 253.396,198.260 253.886,198.438 253.777 C 198.615 253.667,198.967 253.966,199.221 254.440 C 199.583 255.116,199.566 255.375,199.141 255.645 C 198.742 255.898,198.731 255.989,199.100 255.994 C 199.375 255.997,199.600 256.191,199.600 256.424 C 199.600 256.657,199.375 256.716,199.100 256.555 C 198.825 256.394,199.107 256.779,199.726 257.411 C 200.472 258.173,200.781 258.830,200.642 259.359 C 200.528 259.799,200.651 260.427,200.917 260.756 C 201.187 261.090,201.209 261.239,200.967 261.094 C 200.728 260.952,200.533 261.089,200.533 261.400 C 200.533 261.711,200.641 261.898,200.773 261.817 C 200.905 261.735,201.218 262.103,201.469 262.635 C 201.720 263.166,201.792 263.519,201.629 263.418 C 201.467 263.317,201.333 263.489,201.333 263.800 C 201.333 264.111,201.483 264.272,201.667 264.159 C 201.963 263.976,202.068 264.290,201.966 265.055 C 201.947 265.196,202.139 265.439,202.392 265.595 C 202.646 265.752,202.894 266.159,202.944 266.500 C 202.994 266.840,203.297 267.452,203.618 267.860 C 204.154 268.542,204.144 268.556,203.491 268.043 C 202.869 267.555,202.813 267.568,203.034 268.143 C 203.172 268.505,203.466 268.800,203.686 268.800 C 203.906 268.800,203.983 269.068,203.857 269.395 C 203.728 269.731,203.832 269.949,204.096 269.895 C 204.353 269.843,204.587 269.980,204.615 270.200 C 204.675 270.664,205.508 272.727,205.874 273.319 C 206.015 273.548,205.925 273.601,205.666 273.441 C 205.371 273.258,205.293 273.378,205.447 273.779 C 205.578 274.121,205.857 274.400,206.066 274.400 C 206.276 274.400,206.342 274.571,206.212 274.780 C 206.083 274.989,206.343 275.355,206.789 275.594 C 207.235 275.833,207.600 276.277,207.600 276.581 C 207.600 276.885,207.767 277.193,207.970 277.267 C 208.174 277.340,208.399 277.666,208.470 277.990 C 208.542 278.315,208.827 278.825,209.104 279.123 C 209.381 279.421,209.504 279.831,209.378 280.035 C 209.252 280.239,209.431 280.689,209.777 281.034 C 210.139 281.396,210.330 282.075,210.227 282.639 C 210.126 283.198,210.213 283.515,210.432 283.381 C 210.641 283.251,210.707 282.932,210.577 282.672 C 210.447 282.413,210.628 282.555,210.979 282.989 C 211.330 283.422,211.523 284.024,211.407 284.326 C 211.283 284.648,211.525 284.960,211.994 285.082 C 212.432 285.197,212.704 285.432,212.598 285.604 C 212.492 285.775,212.685 286.024,213.028 286.155 C 213.370 286.287,213.537 286.579,213.398 286.804 C 213.259 287.029,212.932 287.089,212.672 286.938 C 212.413 286.786,212.543 287.053,212.962 287.531 C 213.381 288.009,213.966 288.400,214.262 288.400 C 214.558 288.400,214.827 288.625,214.861 288.900 C 214.894 289.175,214.945 289.580,214.972 289.800 C 215.000 290.020,215.378 290.611,215.812 291.113 C 216.245 291.615,216.600 292.167,216.600 292.339 C 216.600 292.512,217.095 293.112,217.700 293.672 C 218.305 294.233,218.800 294.992,218.800 295.358 C 218.800 295.725,219.063 296.126,219.385 296.250 C 219.706 296.373,220.079 296.820,220.214 297.243 C 220.348 297.666,220.604 297.921,220.783 297.810 C 221.284 297.501,222.034 298.611,222.176 299.870 C 222.260 300.617,222.508 300.964,222.906 300.893 C 223.550 300.779,224.150 301.834,223.781 302.432 C 223.658 302.629,223.820 302.691,224.139 302.568 C 224.458 302.446,224.855 302.566,225.021 302.835 C 225.227 303.168,225.157 303.221,224.800 303.000 C 224.454 302.786,224.373 302.833,224.562 303.138 C 224.719 303.392,225.025 303.600,225.243 303.600 C 225.824 303.600,227.573 305.699,227.587 306.415 C 227.594 306.753,228.526 307.923,229.657 309.015 C 230.788 310.107,231.588 310.775,231.433 310.500 C 230.965 309.665,231.805 309.941,232.730 310.926 C 233.772 312.035,233.885 312.719,232.900 311.956 C 232.343 311.524,232.357 311.598,232.971 312.317 C 233.395 312.813,233.935 313.152,234.171 313.069 C 234.642 312.903,237.451 315.192,237.316 315.632 C 237.270 315.782,237.627 316.241,238.109 316.652 C 238.974 317.390,238.978 317.389,238.393 316.600 C 237.840 315.854,237.849 315.838,238.518 316.364 C 238.913 316.674,239.140 317.179,239.023 317.485 C 238.905 317.791,238.968 317.943,239.163 317.823 C 239.357 317.703,239.627 317.894,239.763 318.248 C 239.922 318.663,240.300 318.815,240.829 318.676 C 241.328 318.546,241.734 318.684,241.866 319.029 C 241.986 319.340,242.225 319.508,242.398 319.401 C 242.571 319.294,243.006 319.655,243.365 320.203 C 243.725 320.752,244.263 321.200,244.563 321.200 C 244.862 321.200,245.206 321.578,245.326 322.040 C 245.447 322.502,245.718 322.774,245.928 322.645 C 246.138 322.515,246.532 322.677,246.804 323.004 C 247.076 323.332,247.546 323.600,247.849 323.600 C 248.152 323.600,248.400 323.791,248.400 324.024 C 248.400 324.257,248.581 324.335,248.803 324.198 C 249.024 324.061,249.314 324.231,249.446 324.575 C 249.578 324.919,249.936 325.200,250.243 325.200 C 250.549 325.200,250.800 325.410,250.800 325.667 C 250.800 325.923,250.907 326.026,251.038 325.896 C 251.168 325.765,251.817 326.275,252.479 327.029 C 253.141 327.783,253.889 328.397,254.141 328.394 C 254.394 328.391,254.330 328.213,254.000 328.000 C 253.670 327.787,253.537 327.609,253.705 327.606 C 254.221 327.596,255.781 328.570,256.132 329.122 C 256.431 329.591,257.705 330.245,258.506 330.341 C 258.674 330.361,261.104 331.528,263.906 332.936 C 268.975 335.482,270.315 336.100,270.915 336.165 C 271.088 336.184,271.358 336.386,271.515 336.613 C 271.672 336.841,272.070 337.013,272.400 336.996 C 272.730 336.980,273.557 337.379,274.238 337.883 C 274.919 338.387,275.853 338.800,276.314 338.800 C 276.775 338.800,277.266 338.983,277.404 339.207 C 277.542 339.430,277.819 339.512,278.019 339.388 C 278.220 339.264,278.792 339.390,279.292 339.666 C 279.791 339.943,280.342 340.129,280.516 340.080 C 280.690 340.030,281.230 340.210,281.716 340.480 C 282.202 340.749,282.756 340.925,282.947 340.869 C 283.137 340.814,283.713 341.044,284.226 341.380 C 284.836 341.780,285.247 341.848,285.415 341.576 C 285.587 341.297,285.859 341.317,286.245 341.638 C 286.561 341.900,286.936 341.998,287.078 341.856 C 287.220 341.713,287.756 341.872,288.268 342.208 C 288.781 342.544,289.200 342.696,289.200 342.547 C 289.200 342.398,289.591 342.619,290.069 343.038 C 290.547 343.457,290.806 343.575,290.645 343.300 C 290.484 343.025,290.543 342.800,290.776 342.800 C 291.009 342.800,291.200 343.002,291.200 343.249 C 291.200 343.559,291.385 343.544,291.800 343.200 C 292.276 342.805,292.400 342.805,292.400 343.198 C 292.400 343.492,292.717 343.611,293.181 343.489 C 293.610 343.377,294.022 343.467,294.097 343.690 C 294.171 343.913,295.026 344.167,295.996 344.254 C 296.967 344.341,297.891 344.623,298.050 344.881 C 298.267 345.232,298.496 345.218,298.970 344.825 C 299.358 344.503,299.600 344.466,299.600 344.730 C 299.600 344.980,300.194 345.101,301.028 345.020 C 301.857 344.940,302.531 345.075,302.633 345.342 C 302.739 345.618,303.858 345.820,305.428 345.845 C 306.868 345.867,308.233 346.073,308.460 346.300 C 308.745 346.585,309.179 346.556,309.856 346.205 C 310.637 345.799,311.173 345.795,312.485 346.182 C 313.454 346.468,314.767 346.552,315.675 346.386 C 316.523 346.231,317.318 346.268,317.442 346.468 C 317.721 346.920,331.213 346.855,332.819 346.395 C 333.504 346.198,334.084 346.213,334.219 346.431 C 334.356 346.652,334.796 346.616,335.305 346.344 C 335.947 346.000,336.200 346.000,336.314 346.343 C 336.398 346.594,336.642 346.800,336.857 346.800 C 337.072 346.800,337.136 346.620,337.000 346.400 C 336.864 346.180,337.108 346.000,337.543 346.000 C 337.978 346.000,338.416 346.225,338.517 346.500 C 338.659 346.887,338.824 346.874,339.250 346.441 C 339.717 345.967,339.715 345.931,339.238 346.203 C 338.920 346.384,338.774 346.366,338.901 346.161 C 339.024 345.961,340.312 345.798,341.762 345.799 C 343.213 345.800,344.400 345.688,344.400 345.551 C 344.400 345.276,346.729 344.832,349.800 344.523 C 350.900 344.412,352.007 344.151,352.261 343.944 C 352.563 343.697,352.782 343.746,352.896 344.083 C 353.038 344.505,353.185 344.505,353.698 344.082 C 354.043 343.797,355.136 343.527,356.128 343.482 C 357.641 343.413,357.855 343.307,357.465 342.823 C 357.103 342.374,357.113 342.314,357.508 342.552 C 357.787 342.720,358.597 342.674,359.308 342.450 C 360.019 342.226,361.230 341.988,362.000 341.921 C 362.770 341.855,363.494 341.676,363.609 341.524 C 363.723 341.373,364.292 341.163,364.873 341.057 C 365.454 340.952,366.261 340.711,366.665 340.523 C 367.069 340.334,367.760 340.190,368.200 340.204 C 368.640 340.217,369.106 340.077,369.236 339.894 C 369.366 339.710,369.861 339.531,370.336 339.495 C 370.811 339.459,371.200 339.288,371.200 339.115 C 371.200 338.942,371.560 338.800,372.000 338.800 C 372.440 338.800,372.800 338.620,372.800 338.400 C 372.800 338.180,373.205 338.003,373.700 338.006 C 374.428 338.011,374.485 338.086,374.000 338.400 C 373.670 338.613,373.597 338.791,373.838 338.794 C 374.079 338.797,374.597 338.446,374.988 338.013 C 375.575 337.365,375.851 337.306,376.550 337.678 C 377.305 338.081,377.341 338.060,376.871 337.490 C 376.405 336.925,376.477 336.863,377.471 336.969 C 378.209 337.048,378.837 336.816,379.285 336.301 C 380.513 334.886,379.449 334.469,374.589 334.461 C 369.451 334.453,364.468 334.033,364.191 333.585 C 364.082 333.409,363.427 333.547,362.735 333.892 C 361.591 334.463,361.435 334.463,361.015 333.889 C 360.714 333.477,360.360 333.378,359.996 333.602 C 359.689 333.792,359.320 333.874,359.175 333.784 C 359.030 333.695,358.244 333.539,357.429 333.438 C 356.614 333.336,355.721 333.067,355.446 332.838 C 355.092 332.544,354.689 332.602,354.070 333.036 C 353.340 333.547,353.159 333.557,352.982 333.098 C 352.834 332.713,352.098 332.561,350.533 332.592 C 349.302 332.617,348.093 332.449,347.847 332.219 C 347.601 331.988,346.770 331.800,346.000 331.800 C 345.230 331.800,344.362 331.530,344.070 331.200 C 343.779 330.870,343.642 330.805,343.766 331.055 C 343.890 331.305,343.642 331.600,343.215 331.712 C 342.788 331.824,342.373 331.720,342.294 331.482 C 342.215 331.244,341.469 331.022,340.638 330.988 C 339.806 330.954,339.007 330.745,338.863 330.524 C 338.512 329.985,337.202 330.019,337.191 330.567 C 337.186 330.805,336.811 330.550,336.356 330.000 C 335.902 329.450,335.671 329.270,335.842 329.600 C 336.110 330.117,336.060 330.124,335.477 329.651 C 334.903 329.186,334.799 329.186,334.794 329.651 C 334.789 330.105,334.729 330.107,334.449 329.666 C 334.263 329.372,333.951 329.156,333.755 329.186 C 333.560 329.216,333.040 329.118,332.600 328.967 C 332.160 328.817,331.350 328.673,330.800 328.647 C 330.198 328.619,329.844 328.389,329.910 328.070 C 329.980 327.731,329.836 327.655,329.510 327.859 C 328.748 328.334,327.600 328.444,327.600 328.042 C 327.600 327.848,326.925 327.569,326.100 327.423 C 323.884 327.030,323.167 326.776,323.367 326.454 C 323.464 326.296,322.984 326.123,322.299 326.071 C 321.614 326.019,320.861 325.833,320.627 325.659 C 320.392 325.484,319.775 325.319,319.255 325.292 C 318.736 325.265,317.954 324.921,317.519 324.527 C 317.084 324.133,316.429 323.808,316.064 323.805 C 315.699 323.802,315.438 323.596,315.485 323.346 C 315.540 323.048,315.077 322.958,314.137 323.085 C 313.214 323.209,312.795 323.132,312.959 322.867 C 313.099 322.640,313.030 322.342,312.807 322.204 C 312.583 322.066,312.400 322.121,312.400 322.328 C 312.400 322.534,311.766 322.415,310.991 322.064 C 310.216 321.712,309.659 321.224,309.753 320.979 C 309.847 320.734,309.679 320.533,309.379 320.533 C 309.080 320.533,308.928 320.683,309.041 320.867 C 309.155 321.050,309.078 321.200,308.870 321.200 C 308.663 321.200,308.393 320.816,308.270 320.347 C 308.106 319.718,307.830 319.551,307.217 319.712 C 306.751 319.833,306.126 319.669,305.793 319.336 C 305.381 318.924,305.200 318.893,305.200 319.233 C 305.200 319.502,304.867 319.338,304.459 318.868 C 304.052 318.399,303.573 318.146,303.396 318.307 C 303.218 318.468,303.174 318.315,303.298 317.967 C 303.433 317.589,303.304 317.333,302.979 317.333 C 302.680 317.333,302.544 317.528,302.676 317.767 C 302.809 318.005,302.675 317.975,302.379 317.700 C 302.082 317.425,301.556 317.200,301.208 317.200 C 300.861 317.200,300.329 316.856,300.026 316.436 C 299.724 316.016,299.234 315.766,298.938 315.879 C 298.642 315.993,298.400 315.915,298.400 315.707 C 298.400 315.373,296.400 314.235,296.074 314.384 C 296.004 314.415,295.593 313.990,295.159 313.439 C 294.663 312.809,294.116 312.516,293.685 312.651 C 293.116 312.829,293.130 312.759,293.771 312.237 C 294.195 311.891,294.410 311.477,294.249 311.316 C 294.088 311.155,293.814 311.253,293.640 311.535 C 293.004 312.564,290.207 311.196,290.486 309.992 C 290.549 309.721,290.330 309.419,290.000 309.320 C 289.467 309.159,289.467 309.186,290.000 309.563 C 290.337 309.802,290.399 309.990,290.142 309.994 C 289.438 310.003,287.108 307.673,287.380 307.232 C 287.513 307.017,287.287 306.906,286.877 306.985 C 285.687 307.214,284.534 305.865,284.754 304.500 C 284.856 303.872,284.144 303.844,283.762 304.462 C 283.573 304.767,283.654 304.814,284.000 304.600 C 284.349 304.384,284.427 304.432,284.234 304.745 C 283.486 305.955,278.883 301.368,279.157 299.687 C 279.215 299.335,278.938 299.251,278.274 299.417 C 277.010 299.735,270.224 293.517,270.535 292.326 C 270.640 291.926,270.581 291.688,270.404 291.797 C 270.228 291.906,269.660 291.649,269.142 291.224 C 268.226 290.474,268.808 290.252,269.900 290.935 C 270.578 291.358,270.533 290.876,269.830 290.173 C 269.516 289.859,268.964 289.716,268.603 289.854 C 268.166 290.022,267.653 289.730,267.073 288.987 C 266.593 288.372,265.795 287.505,265.300 287.062 C 264.805 286.619,264.400 285.994,264.400 285.674 C 264.400 285.354,263.933 284.659,263.363 284.131 C 262.793 283.602,262.424 282.916,262.543 282.605 C 262.687 282.228,262.562 282.117,262.163 282.269 C 261.835 282.395,261.620 282.341,261.684 282.149 C 261.748 281.957,261.652 281.800,261.472 281.800 C 261.291 281.800,260.942 281.440,260.696 281.000 C 260.450 280.560,260.320 280.200,260.408 280.200 C 260.497 280.200,260.177 279.750,259.699 279.200 C 259.221 278.650,258.838 278.040,258.849 277.845 C 258.860 277.649,258.713 277.379,258.523 277.245 C 257.389 276.443,253.597 270.158,254.527 270.623 C 254.787 270.753,254.692 270.606,254.316 270.297 C 253.451 269.586,252.710 267.680,253.061 267.066 C 253.208 266.810,253.181 266.733,253.001 266.897 C 252.610 267.251,251.597 266.491,251.606 265.851 C 251.609 265.603,251.787 265.670,252.000 266.000 C 252.244 266.377,252.390 266.419,252.394 266.114 C 252.397 265.847,252.040 265.435,251.600 265.200 C 251.160 264.965,250.803 264.553,250.806 264.286 C 250.810 263.981,250.956 264.023,251.200 264.400 C 251.444 264.777,251.590 264.819,251.594 264.514 C 251.597 264.247,251.240 263.835,250.800 263.600 C 250.360 263.365,250.003 262.953,250.006 262.686 C 250.010 262.381,250.156 262.423,250.400 262.800 C 250.644 263.177,250.790 263.219,250.794 262.914 C 250.797 262.647,250.461 262.247,250.048 262.025 C 249.634 261.804,249.054 260.808,248.760 259.811 C 248.466 258.815,248.105 258.000,247.959 258.000 C 247.512 258.000,246.354 254.001,246.651 253.484 C 246.803 253.218,246.782 253.132,246.604 253.294 C 246.199 253.660,245.230 252.433,245.213 251.533 C 245.206 251.167,244.999 250.800,244.754 250.718 C 244.509 250.636,244.250 250.040,244.179 249.393 C 244.108 248.746,243.869 248.156,243.648 248.083 C 243.426 248.009,243.337 247.708,243.450 247.415 C 243.562 247.121,243.454 246.757,243.208 246.605 C 242.887 246.406,242.907 246.149,243.281 245.688 C 243.573 245.327,243.601 245.166,243.345 245.319 C 243.095 245.469,242.778 245.278,242.639 244.896 C 242.501 244.513,242.129 243.755,241.813 243.212 C 241.470 242.623,241.392 242.128,241.620 241.988 C 241.830 241.858,241.642 241.367,241.201 240.893 C 240.760 240.420,240.400 239.587,240.400 239.040 C 240.400 238.494,240.256 237.958,240.079 237.849 C 239.903 237.740,239.510 236.739,239.207 235.625 C 238.904 234.511,238.508 233.600,238.328 233.600 C 238.147 233.600,238.000 233.409,238.000 233.176 C 238.000 232.943,238.215 232.886,238.479 233.049 C 238.742 233.211,238.562 232.789,238.079 232.110 C 237.595 231.432,237.200 230.648,237.200 230.370 C 237.200 230.091,236.912 229.545,236.561 229.157 C 235.871 228.394,236.153 227.405,236.928 227.870 C 237.187 228.026,237.130 227.814,236.800 227.400 C 236.450 226.961,236.409 226.772,236.700 226.947 C 236.975 227.112,237.200 227.076,237.200 226.866 C 237.200 226.657,237.479 226.378,237.821 226.247 C 238.229 226.091,238.356 226.178,238.191 226.505 C 238.053 226.777,238.204 226.678,238.525 226.285 C 238.847 225.892,239.265 225.621,239.455 225.684 C 239.645 225.746,240.430 225.333,241.200 224.766 C 241.970 224.200,243.032 223.714,243.560 223.688 C 244.087 223.662,244.717 223.441,244.960 223.197 C 245.282 222.872,245.185 222.827,244.600 223.030 L 243.800 223.308 244.600 222.667 C 245.040 222.314,245.625 222.020,245.900 222.013 C 246.175 222.006,246.400 221.820,246.400 221.600 C 246.400 221.380,246.591 221.200,246.824 221.200 C 247.057 221.200,247.119 221.425,246.962 221.700 C 246.805 221.975,247.224 221.690,247.894 221.067 C 248.663 220.352,249.211 220.094,249.380 220.367 C 249.831 221.097,250.469 220.847,250.213 220.040 C 249.964 219.255,251.769 217.410,252.403 217.802 C 252.573 217.907,253.003 217.550,253.357 217.009 C 253.724 216.450,254.243 216.118,254.560 216.240 C 254.868 216.358,255.255 216.234,255.421 215.965 C 255.615 215.653,255.557 215.579,255.262 215.762 C 255.008 215.919,254.800 215.861,254.800 215.634 C 254.800 215.407,255.295 214.956,255.900 214.633 C 257.017 214.036,264.800 206.329,264.800 205.820 C 264.800 205.474,265.855 204.400,266.195 204.400 C 266.334 204.400,266.320 204.625,266.165 204.900 C 265.973 205.240,266.017 205.272,266.302 205.000 C 266.533 204.780,266.792 204.240,266.878 203.800 C 266.987 203.237,267.305 203.030,267.950 203.101 C 268.545 203.167,268.803 203.026,268.684 202.701 C 268.583 202.426,268.281 202.251,268.013 202.312 C 267.745 202.374,268.148 201.654,268.909 200.712 C 269.669 199.771,270.541 198.531,270.846 197.958 C 272.181 195.447,274.098 192.400,274.342 192.400 C 274.488 192.400,274.844 192.021,275.133 191.558 C 275.422 191.095,275.466 190.836,275.230 190.982 C 274.993 191.128,274.800 191.057,274.800 190.824 C 274.800 190.591,274.980 190.400,275.200 190.400 C 275.420 190.400,275.600 190.189,275.600 189.931 C 275.600 189.674,275.906 189.125,276.279 188.712 C 276.653 188.299,277.003 187.663,277.056 187.298 C 277.110 186.933,277.326 186.267,277.537 185.817 C 279.091 182.505,279.584 181.096,279.335 180.680 C 279.176 180.416,279.386 180.470,279.800 180.800 C 280.253 181.161,280.433 181.199,280.250 180.895 C 280.083 180.617,280.216 179.849,280.546 179.188 C 280.876 178.527,280.978 178.090,280.773 178.217 C 280.568 178.344,280.400 178.257,280.400 178.024 C 280.400 177.791,280.559 177.600,280.753 177.600 C 281.208 177.600,281.635 176.223,281.804 174.210 C 281.877 173.336,282.131 172.556,282.369 172.477 C 282.606 172.398,282.800 172.024,282.800 171.647 C 282.800 171.269,283.025 170.718,283.300 170.421 C 283.707 169.983,283.688 169.945,283.200 170.218 C 282.690 170.503,282.679 170.456,283.129 169.901 C 283.420 169.542,283.600 168.832,283.529 168.324 C 283.438 167.672,283.577 167.438,284.000 167.529 C 284.462 167.628,284.492 167.547,284.129 167.178 C 283.798 166.840,283.774 166.393,284.051 165.667 C 284.266 165.099,284.395 164.177,284.336 163.617 C 284.278 163.057,284.387 162.345,284.579 162.034 C 284.771 161.723,284.992 160.208,285.070 158.668 C 285.148 157.128,285.371 155.673,285.567 155.434 C 285.980 154.929,285.837 139.745,285.397 137.445 C 285.156 136.185,285.204 135.950,285.650 136.204 C 286.094 136.457,286.104 136.414,285.700 135.979 C 285.425 135.682,285.200 134.677,285.200 133.744 C 285.200 132.811,285.043 131.950,284.850 131.831 C 284.657 131.712,284.500 131.165,284.500 130.615 C 284.500 129.981,284.665 129.713,284.950 129.884 C 285.267 130.074,285.263 129.982,284.938 129.577 C 284.684 129.260,284.418 128.370,284.347 127.600 C 284.276 126.830,284.079 126.100,283.910 125.977 C 283.741 125.855,283.514 125.225,283.406 124.577 C 282.891 121.488,282.674 120.568,282.369 120.183 C 282.188 119.953,281.973 119.143,281.892 118.383 C 281.811 117.622,281.424 116.280,281.032 115.400 C 280.639 114.520,280.157 113.440,279.960 113.000 C 279.763 112.560,279.546 111.800,279.478 111.310 C 279.410 110.821,279.229 110.296,279.077 110.144 C 278.925 109.991,278.800 109.441,278.800 108.921 C 278.800 108.401,278.520 107.867,278.177 107.736 C 277.834 107.604,277.649 107.248,277.766 106.945 C 277.882 106.641,277.623 106.171,277.189 105.900 C 276.755 105.629,276.400 105.021,276.400 104.550 C 276.400 103.492,275.684 102.080,274.514 100.827 C 274.026 100.306,273.735 99.706,273.865 99.495 C 273.996 99.283,273.931 98.996,273.721 98.855 C 273.018 98.385,271.233 95.470,271.441 95.133 C 271.555 94.950,271.367 94.800,271.024 94.800 C 270.681 94.800,270.400 94.608,270.400 94.373 C 270.400 94.139,269.905 93.293,269.300 92.493 C 268.695 91.694,268.453 91.194,268.762 91.382 C 269.144 91.614,269.232 91.576,269.038 91.262 C 268.881 91.008,268.558 90.800,268.320 90.800 C 267.828 90.800,266.829 89.602,266.819 89.000 C 266.815 88.780,267.003 88.870,267.237 89.200 C 267.614 89.733,267.641 89.733,267.480 89.200 C 267.381 88.870,267.110 88.641,266.877 88.691 C 266.645 88.741,265.527 87.616,264.393 86.191 C 263.259 84.766,262.172 83.600,261.978 83.600 C 261.784 83.600,261.722 83.348,261.840 83.040 C 261.958 82.733,261.859 82.360,261.621 82.213 C 261.382 82.065,261.291 81.776,261.419 81.569 C 261.716 81.088,260.455 79.805,260.081 80.207 C 259.926 80.373,260.026 80.590,260.302 80.689 C 260.579 80.788,260.686 81.061,260.541 81.296 C 260.373 81.567,260.468 81.605,260.800 81.400 C 261.168 81.172,261.228 81.231,261.001 81.599 C 260.745 82.013,260.578 81.984,260.195 81.461 C 259.929 81.097,259.535 80.800,259.318 80.800 C 258.673 80.800,257.487 79.271,257.700 78.715 C 257.826 78.387,257.531 78.178,256.886 78.138 C 256.330 78.105,255.713 77.789,255.516 77.436 C 254.828 76.206,253.175 74.538,253.468 75.369 C 253.713 76.065,253.655 76.055,252.869 75.269 C 252.391 74.791,252.000 74.220,252.000 74.000 C 252.000 73.780,251.865 73.631,251.700 73.670 C 250.692 73.904,249.150 72.626,249.836 72.124 C 250.224 71.840,250.410 71.477,250.249 71.316 C 250.088 71.155,249.814 71.253,249.640 71.535 C 249.206 72.238,247.290 71.716,246.775 70.754 C 246.553 70.339,246.034 70.000,245.621 70.000 C 245.209 70.000,244.444 69.492,243.921 68.871 C 243.399 68.251,242.797 67.801,242.583 67.872 C 242.369 67.944,241.714 67.557,241.127 67.012 C 240.404 66.342,239.995 66.180,239.861 66.511 C 239.738 66.815,239.651 66.758,239.632 66.362 C 239.614 66.011,239.198 65.381,238.707 64.962 C 237.828 64.212,237.823 64.212,238.407 64.965 C 238.973 65.696,238.954 65.706,238.000 65.198 C 237.450 64.905,236.955 64.695,236.900 64.732 C 236.607 64.930,236.014 64.758,236.100 64.500 C 236.155 64.335,236.084 64.200,235.942 64.200 C 235.800 64.200,235.350 63.907,234.942 63.549 C 234.533 63.190,233.751 62.966,233.200 63.050 C 232.518 63.154,232.373 63.090,232.743 62.851 C 233.093 62.625,233.138 62.409,232.870 62.243 C 232.642 62.102,232.348 62.161,232.216 62.373 C 231.999 62.724,229.200 61.391,229.200 60.937 C 229.200 60.836,229.408 60.881,229.662 61.038 C 229.948 61.215,230.015 61.148,229.838 60.861 C 229.633 60.530,229.330 60.517,228.776 60.813 C 228.349 61.041,228.000 61.072,228.000 60.881 C 228.000 60.690,227.769 60.533,227.488 60.533 C 227.206 60.533,226.466 60.199,225.843 59.791 C 225.220 59.383,223.968 58.980,223.061 58.896 C 222.154 58.811,221.319 58.603,221.206 58.432 C 221.093 58.262,220.460 57.991,219.800 57.830 C 219.140 57.669,218.254 57.237,217.831 56.869 C 217.408 56.501,217.194 56.425,217.355 56.700 C 217.712 57.311,216.861 57.355,215.402 56.801 C 214.761 56.557,214.463 56.221,214.638 55.939 C 214.834 55.622,214.747 55.587,214.362 55.827 C 213.592 56.307,212.800 56.397,212.800 56.004 C 212.800 55.826,212.250 55.718,211.578 55.764 C 210.905 55.811,210.230 55.658,210.078 55.424 C 209.925 55.191,209.350 54.976,208.800 54.948 C 206.441 54.824,206.354 54.798,206.653 54.300 C 206.826 54.012,206.639 54.054,206.212 54.400 C 205.628 54.872,205.433 54.890,205.296 54.483 C 205.163 54.089,204.991 54.076,204.566 54.428 C 204.260 54.682,203.783 54.802,203.505 54.696 C 203.227 54.589,202.902 54.524,202.782 54.551 C 202.663 54.578,202.056 54.266,201.433 53.859 C 200.811 53.451,200.437 53.336,200.602 53.603 C 200.830 53.971,200.431 54.024,198.951 53.822 C 195.966 53.414,181.853 53.383,97.200 53.603 M249.172 132.100 C 249.156 134.575,249.021 136.295,248.872 135.923 C 248.587 135.213,248.729 127.600,249.027 127.600 C 249.122 127.600,249.187 129.625,249.172 132.100 M173.800 168.400 C 172.707 168.869,172.400 168.869,172.400 168.400 C 172.400 168.180,172.895 168.013,173.500 168.028 C 174.475 168.053,174.509 168.095,173.800 168.400 M264.629 207.029 C 264.205 207.338,263.972 207.705,264.110 207.843 C 264.249 207.982,264.662 207.795,265.029 207.429 C 265.891 206.566,265.625 206.300,264.629 207.029 M276.800 297.904 C 276.800 298.071,277.160 298.432,277.600 298.707 C 278.530 299.288,278.654 298.997,277.829 298.171 C 277.198 297.541,276.800 297.437,276.800 297.904 M228.800 306.881 C 228.800 307.145,229.385 308.000,230.099 308.781 C 231.286 310.077,231.252 310.063,229.699 308.619 C 228.012 307.049,227.632 306.400,228.400 306.400 C 228.620 306.400,228.800 306.616,228.800 306.881 " stroke="none" fill="#342c54" fill-rule="evenodd"></path><path id="path1" d="M257.915 79.051 C 258.613 79.630,259.070 80.287,258.930 80.513 C 258.778 80.759,258.875 80.801,259.171 80.618 C 259.699 80.292,257.841 78.000,257.048 78.000 C 256.827 78.000,257.217 78.473,257.915 79.051 M98.248 118.323 C 98.021 118.689,98.144 119.877,98.438 120.172 C 98.546 120.279,98.626 119.834,98.617 119.183 C 98.601 117.917,98.559 117.820,98.248 118.323 M102.600 123.600 C 103.459 124.480,104.252 125.200,104.362 125.200 C 104.472 125.200,103.859 124.480,103.000 123.600 C 102.141 122.720,101.348 122.000,101.238 122.000 C 101.128 122.000,101.741 122.720,102.600 123.600 M248.951 132.000 C 248.951 134.530,249.016 135.565,249.096 134.300 C 249.175 133.035,249.175 130.965,249.096 129.700 C 249.016 128.435,248.951 129.470,248.951 132.000 M247.293 138.400 C 247.293 139.170,247.375 139.485,247.476 139.100 C 247.576 138.715,247.576 138.085,247.476 137.700 C 247.375 137.315,247.293 137.630,247.293 138.400 M284.749 161.500 C 284.551 162.665,284.544 163.589,284.736 163.398 C 285.043 163.090,285.282 161.200,285.014 161.200 C 284.896 161.200,284.777 161.335,284.749 161.500 M172.400 168.400 C 172.400 168.869,172.707 168.869,173.800 168.400 C 174.509 168.095,174.475 168.053,173.500 168.028 C 172.895 168.013,172.400 168.180,172.400 168.400 M191.873 232.154 C 191.742 232.495,191.795 232.873,191.990 232.994 C 192.500 233.309,192.804 232.654,192.429 232.047 C 192.181 231.646,192.059 231.669,191.873 232.154 M264.651 286.188 C 264.779 286.522,265.030 286.705,265.208 286.595 C 265.386 286.485,265.623 286.621,265.734 286.898 C 265.886 287.274,265.945 287.278,265.968 286.914 C 265.986 286.647,265.644 286.238,265.209 286.005 C 264.564 285.660,264.461 285.694,264.651 286.188 M270.280 292.386 C 270.393 292.818,270.626 293.133,270.798 293.086 C 270.970 293.039,271.899 293.810,272.863 294.800 C 273.828 295.790,275.063 296.953,275.608 297.385 C 276.154 297.816,275.164 296.691,273.409 294.885 C 269.809 291.178,270.006 291.335,270.280 292.386 M308.400 320.853 C 308.400 321.063,308.625 321.189,308.900 321.134 C 309.175 321.078,309.850 321.255,310.400 321.528 L 311.400 322.023 310.446 321.327 C 309.342 320.521,308.400 320.303,308.400 320.853 M373.500 334.289 C 374.215 334.378,375.385 334.378,376.100 334.289 C 376.815 334.201,376.230 334.128,374.800 334.128 C 373.370 334.128,372.785 334.201,373.500 334.289 M380.122 334.765 C 380.297 335.914,380.800 336.303,380.800 335.290 C 380.800 334.827,380.619 334.336,380.399 334.199 C 380.169 334.057,380.051 334.299,380.122 334.765 " stroke="none" fill="#342c5c" fill-rule="evenodd"></path><path id="path2" d="M216.584 115.175 C 216.712 115.381,217.160 115.523,217.580 115.492 C 218.577 115.416,218.196 114.800,217.153 114.800 C 216.713 114.800,216.457 114.969,216.584 115.175 M180.600 123.600 C 179.741 124.480,179.218 125.200,179.438 125.200 C 179.658 125.200,180.541 124.480,181.400 123.600 C 182.259 122.720,182.782 122.000,182.562 122.000 C 182.342 122.000,181.459 122.720,180.600 123.600 M238.955 166.612 C 238.590 167.169,238.370 167.704,238.467 167.800 C 238.563 167.897,238.958 167.441,239.344 166.788 C 240.198 165.342,239.881 165.199,238.955 166.612 M236.431 169.669 C 235.592 170.729,235.571 170.825,236.272 170.387 C 237.142 169.844,238.204 168.386,237.703 168.422 C 237.537 168.434,236.964 168.995,236.431 169.669 M229.994 175.618 C 229.447 176.039,229.180 176.380,229.400 176.378 C 229.929 176.373,231.391 175.258,231.165 175.031 C 231.068 174.934,230.541 175.198,229.994 175.618 M182.800 216.263 C 182.800 216.490,183.160 217.002,183.600 217.400 C 184.040 217.798,184.400 217.999,184.400 217.845 C 184.400 217.692,184.040 217.180,183.600 216.708 C 183.160 216.236,182.800 216.035,182.800 216.263 M190.304 228.231 C 190.176 228.439,190.325 228.956,190.635 229.381 C 191.241 230.210,191.331 229.879,190.841 228.627 C 190.674 228.201,190.433 228.023,190.304 228.231 M219.600 297.063 C 219.600 297.290,219.960 297.802,220.400 298.200 C 220.840 298.598,221.200 298.799,221.200 298.645 C 221.200 298.492,220.840 297.980,220.400 297.508 C 219.960 297.036,219.600 296.835,219.600 297.063 M281.805 303.451 C 283.451 304.983,284.324 305.531,283.404 304.456 C 282.967 303.944,282.247 303.340,281.804 303.114 L 281.000 302.701 281.805 303.451 M232.088 311.013 C 232.686 311.643,233.247 312.077,233.335 311.979 C 233.423 311.880,232.933 311.365,232.247 310.834 L 231.000 309.869 232.088 311.013 M241.200 319.087 C 241.200 319.274,241.740 319.746,242.400 320.136 C 243.060 320.526,243.600 320.757,243.600 320.650 C 243.600 320.542,243.060 320.070,242.400 319.600 C 241.740 319.130,241.200 318.899,241.200 319.087 M359.800 342.400 C 359.029 342.731,359.031 342.745,359.876 342.772 C 360.358 342.787,360.864 342.620,361.000 342.400 C 361.292 341.927,360.901 341.927,359.800 342.400 " stroke="none" fill="#34345c" fill-rule="evenodd"></path><path id="path3" d="M58.532 53.500 C 79.834 53.557,114.574 53.557,135.732 53.500 C 156.889 53.443,139.460 53.396,97.000 53.396 C 54.540 53.396,37.229 53.443,58.532 53.500 M177.300 53.476 C 177.685 53.576,178.315 53.576,178.700 53.476 C 179.085 53.375,178.770 53.293,178.000 53.293 C 177.230 53.293,176.915 53.375,177.300 53.476 M244.200 69.200 C 244.993 70.076,245.600 70.239,245.600 69.576 C 245.600 69.343,245.419 69.265,245.197 69.402 C 244.976 69.539,244.686 69.369,244.554 69.025 C 244.422 68.681,244.126 68.400,243.895 68.400 C 243.665 68.400,243.802 68.760,244.200 69.200 M249.299 72.096 C 249.407 72.635,250.008 73.184,250.500 73.194 C 251.075 73.206,250.794 72.589,249.999 72.092 C 249.356 71.690,249.217 71.691,249.299 72.096 M264.839 86.700 C 265.728 87.859,266.800 88.852,266.800 88.516 C 266.799 88.084,264.980 86.000,264.604 86.000 C 264.438 86.000,264.544 86.315,264.839 86.700 M35.600 95.725 C 35.600 95.794,36.185 96.379,36.900 97.025 L 38.200 98.200 37.025 96.900 C 35.930 95.688,35.600 95.416,35.600 95.725 M46.239 104.338 C 46.100 104.561,46.182 104.865,46.420 105.012 C 47.035 105.393,47.432 104.872,46.918 104.358 C 46.631 104.071,46.407 104.064,46.239 104.338 M55.733 109.314 C 55.733 109.597,56.053 109.829,56.445 109.829 C 56.979 109.829,57.049 109.701,56.729 109.314 C 56.494 109.031,56.174 108.800,56.018 108.800 C 55.861 108.800,55.733 109.031,55.733 109.314 M66.184 112.775 C 66.312 112.981,66.760 113.123,67.180 113.092 C 68.177 113.016,67.796 112.400,66.753 112.400 C 66.313 112.400,66.057 112.569,66.184 112.775 M210.711 114.071 C 210.963 114.323,211.646 114.580,212.229 114.642 C 213.586 114.787,213.282 114.482,211.581 113.995 C 210.585 113.709,210.368 113.728,210.711 114.071 M121.500 118.300 C 132.775 118.359,151.225 118.359,162.500 118.300 C 173.775 118.241,164.550 118.193,142.000 118.193 C 119.450 118.193,110.225 118.241,121.500 118.300 M184.069 118.684 C 184.638 119.369,185.200 119.340,185.200 118.625 C 185.200 118.301,184.859 118.075,184.420 118.108 C 183.831 118.153,183.745 118.293,184.069 118.684 M101.403 122.395 C 101.257 122.631,101.438 122.684,101.849 122.526 C 102.371 122.325,102.478 122.419,102.290 122.910 C 102.106 123.390,102.210 123.494,102.690 123.310 C 103.200 123.115,103.276 123.226,103.046 123.831 C 102.814 124.440,102.855 124.498,103.247 124.109 C 103.639 123.720,103.590 123.451,103.009 122.809 C 102.197 121.913,101.769 121.802,101.403 122.395 M244.426 125.431 C 244.954 126.068,245.600 126.186,245.600 125.647 C 245.600 125.452,245.230 125.196,244.777 125.078 C 244.102 124.902,244.039 124.965,244.426 125.431 M108.724 132.200 C 108.926 132.640,109.192 133.270,109.314 133.600 C 109.507 134.118,109.541 134.115,109.568 133.576 C 109.586 133.234,109.320 132.604,108.978 132.176 C 108.366 131.412,108.362 131.413,108.724 132.200 M246.893 138.400 C 246.893 139.170,246.975 139.485,247.076 139.100 C 247.176 138.715,247.176 138.085,247.076 137.700 C 246.975 137.315,246.893 137.630,246.893 138.400 M285.206 137.700 C 285.209 137.975,285.372 138.453,285.568 138.761 C 285.822 139.163,285.906 139.021,285.862 138.262 C 285.802 137.227,285.194 136.706,285.206 137.700 M285.098 156.621 C 284.985 157.214,285.075 157.575,285.317 157.494 C 285.828 157.324,286.045 156.075,285.610 155.806 C 285.435 155.698,285.204 156.064,285.098 156.621 M193.200 171.789 C 193.200 171.855,193.668 172.214,194.240 172.589 C 195.226 173.236,195.259 173.234,194.884 172.565 C 194.563 171.990,193.200 171.362,193.200 171.789 M197.200 174.304 C 197.200 174.471,197.560 174.832,198.000 175.107 C 198.930 175.688,199.054 175.397,198.229 174.571 C 197.598 173.941,197.200 173.837,197.200 174.304 M271.280 196.880 C 271.016 197.144,270.800 197.504,270.800 197.680 C 270.800 198.269,271.402 198.008,271.907 197.200 C 272.454 196.324,272.045 196.115,271.280 196.880 M260.162 210.700 C 258.821 212.075,257.880 213.200,258.070 213.200 C 258.561 213.200,262.881 208.823,262.727 208.482 C 262.657 208.327,261.503 209.325,260.162 210.700 M187.293 222.800 C 187.798 223.608,188.400 223.869,188.400 223.280 C 188.400 222.864,187.533 222.000,187.117 222.000 C 186.939 222.000,187.018 222.360,187.293 222.800 M241.829 224.229 C 241.405 224.538,241.172 224.905,241.310 225.043 C 241.449 225.182,241.862 224.995,242.229 224.629 C 243.091 223.766,242.825 223.500,241.829 224.229 M189.109 225.024 C 188.900 225.233,189.897 227.600,190.194 227.600 C 190.484 227.600,190.140 226.451,189.686 225.904 C 189.422 225.586,189.325 225.208,189.470 225.063 C 189.615 224.918,189.643 224.800,189.533 224.800 C 189.423 224.800,189.233 224.901,189.109 225.024 M236.000 228.364 C 236.000 228.550,236.240 228.901,236.533 229.145 C 236.936 229.479,237.067 229.446,237.067 229.011 C 237.067 228.694,236.827 228.342,236.533 228.230 C 236.240 228.117,236.000 228.177,236.000 228.364 M196.792 247.064 C 197.019 247.176,197.111 247.421,196.996 247.607 C 196.881 247.793,196.987 248.068,197.232 248.220 C 197.509 248.391,197.625 248.225,197.538 247.781 C 197.462 247.388,197.171 247.020,196.890 246.963 C 196.610 246.906,196.566 246.952,196.792 247.064 M199.817 258.000 C 200.021 258.330,200.191 258.720,200.194 258.867 C 200.207 259.449,200.800 259.692,200.800 259.116 C 200.800 258.776,200.495 258.251,200.123 257.949 C 199.539 257.475,199.497 257.482,199.817 258.000 M115.853 271.200 C 116.095 271.530,116.374 272.061,116.473 272.380 C 116.589 272.752,116.748 272.807,116.917 272.534 C 117.062 272.299,116.783 271.768,116.297 271.353 C 115.811 270.939,115.612 270.870,115.853 271.200 M255.200 272.702 C 255.200 272.922,255.470 273.326,255.800 273.600 C 256.135 273.878,256.400 273.921,256.400 273.698 C 256.400 273.478,256.130 273.074,255.800 272.800 C 255.465 272.522,255.200 272.479,255.200 272.702 M210.019 281.800 C 210.022 282.020,210.284 282.542,210.600 282.959 C 210.916 283.376,211.062 283.899,210.925 284.121 C 210.784 284.350,210.876 284.400,211.139 284.238 C 211.454 284.043,211.478 283.736,211.214 283.276 C 210.455 281.953,210.012 281.406,210.019 281.800 M212.281 286.159 C 212.677 286.686,213.162 287.019,213.361 286.898 C 213.559 286.777,213.427 286.463,213.067 286.199 C 212.707 285.936,212.530 285.604,212.673 285.460 C 212.816 285.317,212.625 285.200,212.248 285.200 C 211.610 285.200,211.612 285.266,212.281 286.159 M125.333 286.983 C 125.333 287.300,125.582 287.428,125.936 287.292 C 126.379 287.123,126.469 287.244,126.274 287.751 C 126.116 288.162,126.169 288.343,126.405 288.197 C 127.013 287.821,126.876 287.269,126.067 286.836 C 125.524 286.545,125.333 286.584,125.333 286.983 M214.205 288.792 C 214.043 289.055,214.090 289.450,214.310 289.670 C 214.831 290.191,215.245 289.521,214.824 288.838 C 214.578 288.440,214.429 288.429,214.205 288.792 M266.800 288.629 C 266.800 289.053,268.036 290.097,268.267 289.867 C 268.392 289.741,268.217 289.360,267.876 289.019 C 267.241 288.384,266.800 288.224,266.800 288.629 M273.000 295.600 C 274.306 296.920,275.465 298.000,275.575 298.000 C 275.685 298.000,274.706 296.920,273.400 295.600 C 272.094 294.280,270.935 293.200,270.825 293.200 C 270.715 293.200,271.694 294.280,273.000 295.600 M221.096 298.570 C 221.199 299.107,221.514 299.635,221.796 299.743 C 222.441 299.990,222.134 298.609,221.412 298.010 C 221.026 297.690,220.953 297.820,221.096 298.570 M276.000 298.324 C 276.000 298.539,276.285 298.824,276.633 298.957 C 277.023 299.107,277.206 299.018,277.108 298.725 C 276.909 298.127,276.000 297.798,276.000 298.324 M142.962 301.662 C 142.780 301.956,142.853 302.015,143.163 301.823 C 143.437 301.653,143.990 301.829,144.425 302.223 C 144.851 302.608,145.200 302.781,145.200 302.606 C 145.200 301.720,143.396 300.959,142.962 301.662 M155.000 306.400 C 155.136 306.620,155.642 306.787,156.124 306.772 C 156.969 306.745,156.971 306.731,156.200 306.400 C 155.099 305.927,154.708 305.927,155.000 306.400 M165.424 308.038 C 165.547 308.237,166.387 308.400,167.290 308.400 C 169.321 308.400,169.152 308.181,166.900 307.893 C 165.930 307.769,165.296 307.832,165.424 308.038 M290.412 310.220 C 290.398 310.710,291.215 311.600,291.680 311.600 C 291.856 311.600,292.000 311.409,292.000 311.176 C 292.000 310.943,291.831 310.857,291.625 310.985 C 291.418 311.112,291.064 310.898,290.837 310.508 C 290.610 310.119,290.419 309.989,290.412 310.220 M310.554 321.708 C 310.399 321.979,310.421 322.065,310.603 321.899 C 310.786 321.734,311.265 321.897,311.668 322.261 C 312.070 322.626,312.400 322.759,312.400 322.558 C 312.400 321.864,310.870 321.160,310.554 321.708 M368.300 334.282 C 368.795 334.378,369.605 334.378,370.100 334.282 C 370.595 334.187,370.190 334.109,369.200 334.109 C 368.210 334.109,367.805 334.187,368.300 334.282 M379.287 336.409 C 378.819 337.159,378.841 337.181,379.591 336.713 C 380.036 336.435,380.400 336.071,380.400 335.904 C 380.400 335.326,379.791 335.603,379.287 336.409 M310.366 346.241 C 310.030 346.646,310.026 346.800,310.351 346.800 C 310.598 346.800,310.800 346.598,310.800 346.351 C 310.800 346.028,310.959 346.034,311.364 346.370 C 311.697 346.647,312.024 346.686,312.160 346.465 C 312.542 345.847,310.866 345.638,310.366 346.241 M315.800 346.400 L 314.600 346.705 315.676 346.753 C 316.268 346.779,316.864 346.620,317.000 346.400 C 317.136 346.180,317.192 346.021,317.124 346.047 C 317.056 346.073,316.460 346.232,315.800 346.400 " stroke="none" fill="#382c54" fill-rule="evenodd"></path><path id="path4" d="M58.532 53.500 C 79.834 53.557,114.574 53.557,135.732 53.500 C 156.889 53.443,139.460 53.396,97.000 53.396 C 54.540 53.396,37.229 53.443,58.532 53.500 M177.300 53.476 C 177.685 53.576,178.315 53.576,178.700 53.476 C 179.085 53.375,178.770 53.293,178.000 53.293 C 177.230 53.293,176.915 53.375,177.300 53.476 M244.200 69.200 C 244.993 70.076,245.600 70.239,245.600 69.576 C 245.600 69.343,245.419 69.265,245.197 69.402 C 244.976 69.539,244.686 69.369,244.554 69.025 C 244.422 68.681,244.126 68.400,243.895 68.400 C 243.665 68.400,243.802 68.760,244.200 69.200 M249.299 72.096 C 249.407 72.635,250.008 73.184,250.500 73.194 C 251.075 73.206,250.794 72.589,249.999 72.092 C 249.356 71.690,249.217 71.691,249.299 72.096 M264.839 86.700 C 265.728 87.859,266.800 88.852,266.800 88.516 C 266.799 88.084,264.980 86.000,264.604 86.000 C 264.438 86.000,264.544 86.315,264.839 86.700 M35.600 95.725 C 35.600 95.794,36.185 96.379,36.900 97.025 L 38.200 98.200 37.025 96.900 C 35.930 95.688,35.600 95.416,35.600 95.725 M46.239 104.338 C 46.100 104.561,46.182 104.865,46.420 105.012 C 47.035 105.393,47.432 104.872,46.918 104.358 C 46.631 104.071,46.407 104.064,46.239 104.338 M55.733 109.314 C 55.733 109.597,56.053 109.829,56.445 109.829 C 56.979 109.829,57.049 109.701,56.729 109.314 C 56.494 109.031,56.174 108.800,56.018 108.800 C 55.861 108.800,55.733 109.031,55.733 109.314 M66.184 112.775 C 66.312 112.981,66.760 113.123,67.180 113.092 C 68.177 113.016,67.796 112.400,66.753 112.400 C 66.313 112.400,66.057 112.569,66.184 112.775 M210.711 114.071 C 210.963 114.323,211.646 114.580,212.229 114.642 C 213.586 114.787,213.282 114.482,211.581 113.995 C 210.585 113.709,210.368 113.728,210.711 114.071 M121.500 118.300 C 132.775 118.359,151.225 118.359,162.500 118.300 C 173.775 118.241,164.550 118.193,142.000 118.193 C 119.450 118.193,110.225 118.241,121.500 118.300 M184.069 118.684 C 184.638 119.369,185.200 119.340,185.200 118.625 C 185.200 118.301,184.859 118.075,184.420 118.108 C 183.831 118.153,183.745 118.293,184.069 118.684 M101.403 122.395 C 101.257 122.631,101.438 122.684,101.849 122.526 C 102.371 122.325,102.478 122.419,102.290 122.910 C 102.106 123.390,102.210 123.494,102.690 123.310 C 103.200 123.115,103.276 123.226,103.046 123.831 C 102.814 124.440,102.855 124.498,103.247 124.109 C 103.639 123.720,103.590 123.451,103.009 122.809 C 102.197 121.913,101.769 121.802,101.403 122.395 M244.426 125.431 C 244.954 126.068,245.600 126.186,245.600 125.647 C 245.600 125.452,245.230 125.196,244.777 125.078 C 244.102 124.902,244.039 124.965,244.426 125.431 M108.724 132.200 C 108.926 132.640,109.192 133.270,109.314 133.600 C 109.507 134.118,109.541 134.115,109.568 133.576 C 109.586 133.234,109.320 132.604,108.978 132.176 C 108.366 131.412,108.362 131.413,108.724 132.200 M246.893 138.400 C 246.893 139.170,246.975 139.485,247.076 139.100 C 247.176 138.715,247.176 138.085,247.076 137.700 C 246.975 137.315,246.893 137.630,246.893 138.400 M285.206 137.700 C 285.209 137.975,285.372 138.453,285.568 138.761 C 285.822 139.163,285.906 139.021,285.862 138.262 C 285.802 137.227,285.194 136.706,285.206 137.700 M285.098 156.621 C 284.985 157.214,285.075 157.575,285.317 157.494 C 285.828 157.324,286.045 156.075,285.610 155.806 C 285.435 155.698,285.204 156.064,285.098 156.621 M193.200 171.789 C 193.200 171.855,193.668 172.214,194.240 172.589 C 195.226 173.236,195.259 173.234,194.884 172.565 C 194.563 171.990,193.200 171.362,193.200 171.789 M197.200 174.304 C 197.200 174.471,197.560 174.832,198.000 175.107 C 198.930 175.688,199.054 175.397,198.229 174.571 C 197.598 173.941,197.200 173.837,197.200 174.304 M271.280 196.880 C 271.016 197.144,270.800 197.504,270.800 197.680 C 270.800 198.269,271.402 198.008,271.907 197.200 C 272.454 196.324,272.045 196.115,271.280 196.880 M260.162 210.700 C 258.821 212.075,257.880 213.200,258.070 213.200 C 258.561 213.200,262.881 208.823,262.727 208.482 C 262.657 208.327,261.503 209.325,260.162 210.700 M187.293 222.800 C 187.798 223.608,188.400 223.869,188.400 223.280 C 188.400 222.864,187.533 222.000,187.117 222.000 C 186.939 222.000,187.018 222.360,187.293 222.800 M241.829 224.229 C 241.405 224.538,241.172 224.905,241.310 225.043 C 241.449 225.182,241.862 224.995,242.229 224.629 C 243.091 223.766,242.825 223.500,241.829 224.229 M189.109 225.024 C 188.900 225.233,189.897 227.600,190.194 227.600 C 190.484 227.600,190.140 226.451,189.686 225.904 C 189.422 225.586,189.325 225.208,189.470 225.063 C 189.615 224.918,189.643 224.800,189.533 224.800 C 189.423 224.800,189.233 224.901,189.109 225.024 M236.000 228.364 C 236.000 228.550,236.240 228.901,236.533 229.145 C 236.936 229.479,237.067 229.446,237.067 229.011 C 237.067 228.694,236.827 228.342,236.533 228.230 C 236.240 228.117,236.000 228.177,236.000 228.364 M196.792 247.064 C 197.019 247.176,197.111 247.421,196.996 247.607 C 196.881 247.793,196.987 248.068,197.232 248.220 C 197.509 248.391,197.625 248.225,197.538 247.781 C 197.462 247.388,197.171 247.020,196.890 246.963 C 196.610 246.906,196.566 246.952,196.792 247.064 M199.817 258.000 C 200.021 258.330,200.191 258.720,200.194 258.867 C 200.207 259.449,200.800 259.692,200.800 259.116 C 200.800 258.776,200.495 258.251,200.123 257.949 C 199.539 257.475,199.497 257.482,199.817 258.000 M115.853 271.200 C 116.095 271.530,116.374 272.061,116.473 272.380 C 116.589 272.752,116.748 272.807,116.917 272.534 C 117.062 272.299,116.783 271.768,116.297 271.353 C 115.811 270.939,115.612 270.870,115.853 271.200 M255.200 272.702 C 255.200 272.922,255.470 273.326,255.800 273.600 C 256.135 273.878,256.400 273.921,256.400 273.698 C 256.400 273.478,256.130 273.074,255.800 272.800 C 255.465 272.522,255.200 272.479,255.200 272.702 M210.019 281.800 C 210.022 282.020,210.284 282.542,210.600 282.959 C 210.916 283.376,211.062 283.899,210.925 284.121 C 210.784 284.350,210.876 284.400,211.139 284.238 C 211.454 284.043,211.478 283.736,211.214 283.276 C 210.455 281.953,210.012 281.406,210.019 281.800 M212.281 286.159 C 212.677 286.686,213.162 287.019,213.361 286.898 C 213.559 286.777,213.427 286.463,213.067 286.199 C 212.707 285.936,212.530 285.604,212.673 285.460 C 212.816 285.317,212.625 285.200,212.248 285.200 C 211.610 285.200,211.612 285.266,212.281 286.159 M125.333 286.983 C 125.333 287.300,125.582 287.428,125.936 287.292 C 126.379 287.123,126.469 287.244,126.274 287.751 C 126.116 288.162,126.169 288.343,126.405 288.197 C 127.013 287.821,126.876 287.269,126.067 286.836 C 125.524 286.545,125.333 286.584,125.333 286.983 M214.205 288.792 C 214.043 289.055,214.090 289.450,214.310 289.670 C 214.831 290.191,215.245 289.521,214.824 288.838 C 214.578 288.440,214.429 288.429,214.205 288.792 M266.800 288.629 C 266.800 289.053,268.036 290.097,268.267 289.867 C 268.392 289.741,268.217 289.360,267.876 289.019 C 267.241 288.384,266.800 288.224,266.800 288.629 M273.000 295.600 C 274.306 296.920,275.465 298.000,275.575 298.000 C 275.685 298.000,274.706 296.920,273.400 295.600 C 272.094 294.280,270.935 293.200,270.825 293.200 C 270.715 293.200,271.694 294.280,273.000 295.600 M221.096 298.570 C 221.199 299.107,221.514 299.635,221.796 299.743 C 222.441 299.990,222.134 298.609,221.412 298.010 C 221.026 297.690,220.953 297.820,221.096 298.570 M276.000 298.324 C 276.000 298.539,276.285 298.824,276.633 298.957 C 277.023 299.107,277.206 299.018,277.108 298.725 C 276.909 298.127,276.000 297.798,276.000 298.324 M142.962 301.662 C 142.780 301.956,142.853 302.015,143.163 301.823 C 143.437 301.653,143.990 301.829,144.425 302.223 C 144.851 302.608,145.200 302.781,145.200 302.606 C 145.200 301.720,143.396 300.959,142.962 301.662 M155.000 306.400 C 155.136 306.620,155.642 306.787,156.124 306.772 C 156.969 306.745,156.971 306.731,156.200 306.400 C 155.099 305.927,154.708 305.927,155.000 306.400 M165.424 308.038 C 165.547 308.237,166.387 308.400,167.290 308.400 C 169.321 308.400,169.152 308.181,166.900 307.893 C 165.930 307.769,165.296 307.832,165.424 308.038 M290.412 310.220 C 290.398 310.710,291.215 311.600,291.680 311.600 C 291.856 311.600,292.000 311.409,292.000 311.176 C 292.000 310.943,291.831 310.857,291.625 310.985 C 291.418 311.112,291.064 310.898,290.837 310.508 C 290.610 310.119,290.419 309.989,290.412 310.220 M310.554 321.708 C 310.399 321.979,310.421 322.065,310.603 321.899 C 310.786 321.734,311.265 321.897,311.668 322.261 C 312.070 322.626,312.400 322.759,312.400 322.558 C 312.400 321.864,310.870 321.160,310.554 321.708 M368.300 334.282 C 368.795 334.378,369.605 334.378,370.100 334.282 C 370.595 334.187,370.190 334.109,369.200 334.109 C 368.210 334.109,367.805 334.187,368.300 334.282 M379.287 336.409 C 378.819 337.159,378.841 337.181,379.591 336.713 C 380.036 336.435,380.400 336.071,380.400 335.904 C 380.400 335.326,379.791 335.603,379.287 336.409 M310.366 346.241 C 310.030 346.646,310.026 346.800,310.351 346.800 C 310.598 346.800,310.800 346.598,310.800 346.351 C 310.800 346.028,310.959 346.034,311.364 346.370 C 311.697 346.647,312.024 346.686,312.160 346.465 C 312.542 345.847,310.866 345.638,310.366 346.241 M315.800 346.400 L 314.600 346.705 315.676 346.753 C 316.268 346.779,316.864 346.620,317.000 346.400 C 317.136 346.180,317.192 346.021,317.124 346.047 C 317.056 346.073,316.460 346.232,315.800 346.400 " stroke="none" fill="#382c54" fill-rule="evenodd"></path></g></svg>